<?xml version="1.0" standalone="no"?>
<!DOCTYPE svg PUBLIC "-//W3C//DTD SVG 20010904//EN"
 "http://www.w3.org/TR/2001/REC-SVG-20010904/DTD/svg10.dtd">
<svg version="1.0" xmlns="http://www.w3.org/2000/svg"
 width="500.000000pt" height="500.000000pt" viewBox="0 0 500.000000 500.000000"
 preserveAspectRatio="xMidYMid meet">

<g transform="translate(0.000000,500.000000) scale(0.100000,-0.100000)"
fill="#000000" stroke="none">
<path d="M0 2500 l0 -2500 2500 0 2500 0 0 2500 0 2500 -2500 0 -2500 0 0
-2500z m2790 880 c0 -5 21 -43 48 -84 l47 -76 808 0 c536 0 806 -3 802 -10 -4
-7 -286 -10 -814 -10 l-807 0 -55 85 -54 85 -308 0 -308 0 -41 -90 -41 -90
-784 0 c-515 0 -783 3 -783 10 0 7 265 10 776 10 l775 0 44 93 43 92 326 -3
c192 -1 326 -6 326 -12z m-359 -425 c10 -38 16 -71 14 -74 -4 -4 -85 16 -224
56 l-53 15 21 21 c35 35 100 57 165 54 l60 -2 17 -70z m58 46 c43 -22 107 -90
122 -128 9 -24 5 -31 -43 -80 -29 -29 -55 -53 -58 -53 -4 0 -50 156 -77 258
-7 27 6 28 56 3z m-266 -78 c34 -9 66 -20 70 -23 5 -4 -38 -53 -95 -108 -101
-99 -103 -100 -111 -74 -14 52 13 163 50 204 19 22 10 21 86 1z m-871 -165
l46 -93 43 92 c42 88 45 92 77 93 l32 0 0 -145 0 -145 -25 0 c-25 0 -25 0 -26
103 l-1 102 -41 -87 c-54 -114 -65 -115 -117 -5 -22 45 -40 78 -41 72 0 -5 -1
-49 0 -97 0 -87 0 -88 -24 -88 l-25 0 0 145 0 145 28 0 c25 0 32 -9 74 -92z
m461 55 c8 -21 36 -86 61 -145 l45 -108 -29 0 c-23 0 -30 6 -39 33 -11 32 -11
32 -77 32 -53 0 -68 -4 -80 -19 -8 -11 -14 -26 -14 -33 0 -8 -12 -13 -30 -13
l-30 0 16 38 c9 20 36 85 61 145 42 99 48 107 73 107 23 0 31 -7 43 -37z
m1202 23 c96 -41 105 -200 13 -256 -26 -16 -50 -20 -115 -20 l-83 0 0 145 0
145 75 0 c43 0 90 -6 110 -14z m332 -43 c28 -65 93 -223 93 -229 0 -2 -11 -4
-26 -4 -19 0 -28 7 -35 29 -12 35 -27 39 -101 33 -51 -4 -58 -7 -68 -33 -9
-21 -19 -29 -36 -29 -13 0 -24 2 -24 5 0 2 20 50 44 107 24 57 51 120 59 141
13 29 21 37 42 37 22 0 30 -9 52 -57z m275 -19 c95 -135 87 -133 88 -21 0 97
0 97 25 97 l25 0 0 -145 0 -145 -24 0 c-20 0 -38 20 -93 98 l-68 97 -3 -97
c-3 -97 -3 -98 -27 -98 l-25 0 0 145 0 145 24 0 c20 0 37 -17 78 -76z m446 54
c-2 -19 -10 -24 -45 -26 l-43 -3 0 -120 0 -119 -25 0 -25 0 0 120 0 120 -45 0
c-41 0 -45 2 -45 25 l0 25 116 0 c114 0 115 0 112 -22z m280 0 c-3 -21 -9 -23
-75 -26 l-73 -3 0 -34 0 -35 65 0 c63 0 65 -1 65 -25 0 -24 -2 -25 -65 -25
l-65 0 0 -37 0 -38 72 0 c68 0 73 -2 76 -22 3 -23 2 -23 -102 -23 l-106 0 0
145 0 145 106 0 c104 0 105 0 102 -22z m-1720 -97 c-2 -49 -10 -78 -30 -113
l-28 -46 -81 21 -81 20 109 109 c118 119 118 119 111 9z m-380 -91 c40 -154
39 -152 4 -139 -57 20 -152 120 -152 161 0 17 103 120 111 110 3 -4 20 -63 37
-132z m155 -36 c73 -20 136 -40 140 -44 11 -10 -62 -56 -109 -69 -46 -13 -121
-14 -128 -3 -9 14 -45 152 -40 152 3 0 64 -16 137 -36z m-1215 -306 c7 -7 12
-24 12 -40 0 -30 -23 -48 -64 -48 -19 0 -26 -5 -26 -20 0 -11 -4 -20 -10 -20
-6 0 -10 30 -10 70 l0 70 43 0 c24 0 48 -5 55 -12z m172 -18 c0 -28 2 -30 40
-30 38 0 40 2 40 30 0 17 5 30 10 30 6 0 10 -30 10 -70 0 -40 -4 -70 -10 -70
-5 0 -10 14 -10 30 0 28 -2 30 -40 30 -38 0 -40 -2 -40 -30 0 -16 -4 -30 -10
-30 -6 0 -10 30 -10 70 0 40 4 70 10 70 6 0 10 -13 10 -30z m365 5 c14 -13 25
-33 25 -45 0 -11 -11 -32 -25 -45 -48 -49 -128 -20 -128 45 0 65 80 94 128 45z
m255 15 c0 -5 -11 -10 -25 -10 -24 0 -25 -3 -25 -60 0 -33 -4 -60 -10 -60 -6
0 -10 27 -10 60 0 57 -1 60 -25 60 -14 0 -25 5 -25 10 0 6 27 10 60 10 33 0
60 -4 60 -10z m237 -12 c46 -43 15 -118 -49 -118 -39 0 -78 34 -78 69 0 61 81
93 127 49z m257 16 c27 -10 17 -24 -13 -18 -42 9 -71 -11 -71 -46 0 -47 75
-73 82 -28 4 31 28 35 28 4 0 -45 -68 -62 -111 -28 -15 13 -22 30 -22 52 0 52
54 84 107 64z m260 -10 c20 -20 20 -48 1 -64 -14 -11 -14 -15 0 -36 12 -18 12
-24 3 -24 -7 0 -19 9 -26 20 -20 33 -59 24 -53 -12 0 -5 -6 -8 -14 -8 -12 0
-15 14 -15 70 l0 70 44 0 c27 0 51 -6 60 -16z m247 -50 c17 -36 28 -68 24 -72
-3 -4 -11 1 -16 11 -7 11 -22 17 -49 17 -27 0 -42 -6 -49 -17 -5 -10 -13 -14
-17 -10 -10 9 52 137 66 137 5 0 24 -30 41 -66z m250 56 c12 -7 19 -21 19 -40
0 -32 -23 -50 -64 -50 -19 0 -26 -5 -26 -20 0 -31 -20 -24 -21 8 0 15 -2 46
-3 70 l-3 42 39 0 c22 0 48 -5 59 -10z m179 -20 c0 -28 2 -30 40 -30 38 0 40
2 40 30 0 17 5 30 10 30 6 0 10 -30 10 -70 0 -40 -4 -70 -10 -70 -5 0 -10 14
-10 30 0 28 -2 30 -40 30 -38 0 -40 -2 -40 -30 0 -33 -19 -42 -21 -10 -5 72
-1 120 11 120 6 0 10 -13 10 -30z m267 -7 l21 -36 23 36 c13 20 27 37 32 37
11 0 9 -8 -18 -50 -14 -22 -25 -51 -25 -65 0 -14 -4 -25 -10 -25 -5 0 -10 10
-10 21 0 12 -13 44 -30 70 -19 31 -25 49 -17 49 7 0 22 -16 34 -37z m823 -293
c0 -7 -673 -10 -2000 -10 -1327 0 -2000 3 -2000 10 0 7 673 10 2000 10 1327 0
2000 -3 2000 -10z m-3025 -180 c4 -6 -8 -10 -28 -10 -36 0 -51 -17 -41 -45 4
-9 19 -15 41 -15 20 0 32 -4 28 -10 -13 -20 -64 -11 -81 15 -15 23 -15 27 0
50 17 26 68 35 81 15z m139 -12 c8 -13 8 -23 -1 -37 -9 -14 -9 -21 0 -30 15
-15 5 -14 -29 4 -26 13 -29 13 -32 0 -8 -35 -22 -11 -22 36 l0 50 36 -3 c22
-2 42 -10 48 -20z m131 12 c-4 -6 -12 -10 -18 -9 -24 3 -37 -1 -37 -11 0 -5
14 -10 31 -10 17 0 28 -4 24 -10 -3 -5 -18 -10 -31 -10 -35 0 -25 -25 10 -26
44 -2 42 -14 -2 -14 l-42 0 0 50 0 50 36 0 c21 0 33 -4 29 -10z m139 -40 c20
-39 22 -50 11 -50 -8 0 -15 7 -15 15 0 20 -34 19 -55 -1 -9 -9 -18 -14 -21
-12 -7 8 34 98 45 98 6 0 21 -22 35 -50z m141 40 c-3 -5 -12 -10 -19 -10 -9 0
-13 -13 -12 -40 1 -22 -2 -40 -6 -40 -4 0 -8 18 -8 40 0 33 -4 42 -22 50 -19
7 -14 9 25 9 30 1 46 -3 42 -9z m75 -40 c0 -27 -4 -50 -10 -50 -5 0 -10 23
-10 50 0 28 5 50 10 50 6 0 10 -22 10 -50z m102 18 l27 -33 1 33 c0 17 5 32
10 32 6 0 10 -22 10 -50 0 -27 -4 -50 -9 -50 -5 0 -21 15 -35 33 l-26 32 0
-32 c0 -18 -4 -33 -10 -33 -5 0 -10 23 -10 50 0 28 3 50 8 50 4 0 19 -14 34
-32z m193 23 c3 -5 -9 -11 -27 -13 -28 -2 -33 -7 -33 -28 0 -20 6 -26 28 -28
20 -2 27 1 27 13 0 9 5 13 10 10 18 -11 -9 -45 -35 -45 -47 0 -72 52 -39 84
17 18 59 21 69 7z m182 -21 l18 -31 27 33 27 33 -1 -55 c-1 -49 -1 -51 -7 -20
l-7 35 -14 -27 c-7 -16 -17 -28 -21 -28 -5 0 -15 12 -23 28 l-15 27 -1 -32 c0
-18 -4 -33 -10 -33 -5 0 -10 23 -10 50 0 57 11 63 37 20z m231 18 c7 -7 12
-24 12 -38 0 -33 -17 -50 -51 -50 -32 0 -59 23 -59 50 0 41 68 68 98 38z m92
5 c0 -5 9 -19 19 -32 l18 -24 19 32 c10 17 22 31 26 31 4 0 8 -22 8 -50 0 -27
-4 -50 -10 -50 -5 0 -10 12 -10 28 l0 27 -19 -24 -18 -24 -17 24 -16 23 0 -27
c0 -15 -4 -27 -10 -27 -5 0 -10 23 -10 50 0 28 5 50 10 50 6 0 10 -3 10 -7z
m227 0 c-4 -3 -17 -7 -30 -8 -28 -2 -25 -18 5 -27 21 -6 21 -6 2 -7 -11 -1
-23 -4 -27 -7 -9 -9 4 -35 14 -28 5 3 17 0 26 -5 15 -8 10 -10 -22 -11 l-40 0
0 50 0 50 39 0 c22 0 36 -3 33 -7z m105 -25 l27 -33 1 33 c0 17 5 32 10 32 6
0 10 -22 10 -50 0 -27 -3 -50 -7 -50 -5 0 -20 14 -35 32 l-27 33 -1 -32 c0
-18 -4 -33 -10 -33 -5 0 -10 23 -10 50 0 28 3 50 8 50 4 0 19 -14 34 -32z
m169 21 c-20 -8 -23 -15 -19 -49 2 -22 0 -40 -4 -40 -5 0 -8 18 -8 40 0 28 -4
40 -14 40 -8 0 -18 5 -21 10 -4 6 12 10 42 9 40 0 44 -2 24 -10z m134 2 c3 -5
-9 -11 -27 -13 l-33 -4 33 -13 c25 -10 32 -19 30 -35 -3 -24 -53 -35 -71 -17
-8 8 -2 11 21 11 38 0 42 15 7 24 -30 8 -44 34 -24 47 18 12 56 11 64 0z"/>
<path d="M1743 2728 l-20 -53 23 -3 c13 -2 35 -2 48 0 l23 3 -20 53 c-11 28
-23 52 -27 52 -4 0 -16 -24 -27 -52z"/>
<path d="M2880 2707 c0 -52 2 -96 5 -98 2 -3 30 -2 61 1 70 8 94 32 94 95 0
65 -33 95 -105 95 l-55 0 0 -93z"/>
<path d="M3272 2737 c-12 -29 -22 -56 -22 -60 0 -4 20 -7 45 -7 25 0 45 4 45
9 0 5 -11 32 -23 59 l-24 51 -21 -52z"/>
<path d="M1110 2261 c0 -26 4 -31 23 -31 57 1 66 53 9 58 -30 3 -32 1 -32 -27z"/>
<path d="M1636 2277 c-28 -20 -18 -69 17 -81 36 -13 61 2 65 38 6 49 -40 74
-82 43z"/>
<path d="M2127 2272 c-22 -24 -21 -45 1 -65 35 -32 92 -11 92 33 0 45 -62 66
-93 32z"/>
<path d="M2660 2260 c0 -25 4 -30 24 -30 33 0 53 25 36 45 -7 8 -23 15 -36 15
-20 0 -24 -5 -24 -30z"/>
<path d="M2923 2250 c-11 -28 -10 -30 13 -30 26 0 27 3 18 38 -8 30 -17 28
-31 -8z"/>
<path d="M3160 2261 c0 -26 4 -31 23 -31 57 1 66 53 9 58 -30 3 -32 1 -32 -27z"/>
<path d="M1550 1773 c0 -20 4 -24 22 -21 33 4 35 34 3 40 -21 4 -25 2 -25 -19z"/>
<path d="M1836 1765 c-4 -10 1 -15 14 -15 13 0 18 5 14 15 -4 8 -10 15 -14 15
-4 0 -10 -7 -14 -15z"/>
<path d="M2734 1776 c-11 -28 4 -48 33 -44 22 2 28 8 28 28 0 20 -6 26 -28 28
-18 2 -29 -2 -33 -12z"/>
</g>
</svg>
