<?xml version="1.0" standalone="yes"?>
<svg width="7870" height="3084" xmlns="http://www.w3.org/2000/svg">
  <path style="fill:#313131; stroke:none;" d="M0 0L0 3084L7870 3084L7870 0L0 0z" />
  <path style="fill:#fefefe; stroke:none;" d="M117 493C110.884 501.188 103.786 516.599 118.004 522.106C121.96 523.639 126.843 523 131 523L154 523L236 523L656 523L2379 523L2923 523L3068 523L3106 523C3110.34 523 3117.82 524.417 3121.61 521.972C3124.24 520.271 3124.96 516.701 3126.09 514C3127.94 509.581 3130.37 505.411 3132.28 501C3140 483.187 3148.61 465.757 3156.44 448C3173 410.409 3190.43 373.181 3207.88 336C3220.15 309.847 3231.03 282.918 3243.76 257C3253.39 237.379 3263.22 217.19 3271.55 197C3274.01 191.029 3277.39 177.664 3285 176.742C3293.27 175.741 3302.63 177 3311 177L3370 177L3549 177C3738.05 177 3926.94 178 4116 178L4356 178C4379.37 178 4402.68 179 4426 179L4447 179C4450.44 179 4454.66 178.401 4457.91 179.742C4463.9 182.213 4468.18 192.635 4471.26 198C4480.16 213.501 4489.59 228.748 4498.91 244C4522.24 282.156 4544.8 320.81 4568.09 359C4582.68 382.927 4597.83 406.649 4611.71 431C4623.21 451.169 4635.26 471.389 4647.7 491C4650.92 496.082 4655.63 508.74 4662.1 509.852C4673.09 511.739 4685.85 510 4697 510L4768 510L4987 510L5670 510L7783 510L7783 483L5690 483L5011 483L4791 483L4720 483C4708.74 483 4696.12 484.605 4685 482.852C4677.33 481.642 4673.42 469.89 4669.83 464C4658.45 445.341 4647.29 426.525 4635.68 408C4595.55 343.953 4558.92 277.667 4518.18 214C4507.91 197.948 4499.21 180.812 4488.58 165C4484.55 159.02 4481.32 151.348 4474 148.728C4470.32 147.41 4465.84 148 4462 148L4440 148L4363 148L4107 148C3912.74 148 3718.34 147 3524 147C3476.05 147 3427.94 148.159 3380 146.985C3343.9 146.102 3307.16 144.267 3271 146.04C3259.83 146.588 3255.87 155.117 3251.64 164C3243.15 181.797 3236.17 200.499 3227.11 218C3213.39 244.52 3202.08 272.694 3189.96 300C3170.94 342.865 3150.84 385.338 3131.31 428C3123.54 444.979 3116.06 462.113 3108.12 479C3105.51 484.54 3103.82 493.941 3097 495.682C3087.74 498.042 3075.54 496 3066 496L3000 496L2789 496C2560.34 496 2331.58 495 2103 495C1652.65 495 1202.28 494 752 494L321 494C275.001 494 228.916 493.222 183 493.001C168.001 492.928 152.999 493 138 493C131.197 493 123.605 494.436 117 493z" />
  <path style="fill:#fef201; stroke:none;" d="M4483 218L4484 219L4483 218M4527 229L4528 230L4527 229M3218 236L3219 237L3218 236M4498 243L4499 244L4498 243M4550 267L4551 268L4550 267M4530 296L4531 297L4530 296M4538 309L4539 310L4538 309M4545 321L4546 322L4545 321M4598 346L4599 347L4598 346M4585 387L4586 388L4585 387M4636 409L4637 410L4636 409M3132 425L3133 426L3132 425M4608 425L4609 426L4608 425M3160 439L3161 440L3160 439M115 495L116 496L115 495M4655 503L4656 504L4655 503M3919 1301C3932.68 1272.05 3951.24 1244.56 3967.55 1217C3988.27 1181.97 4007.94 1146.27 4028.28 1111C4037.51 1095 4046.65 1078.93 4056.01 1063C4058.76 1058.31 4066.07 1049.68 4065.21 1044C4064.15 1037 4055.06 1028.43 4050.79 1023C4037.21 1005.75 4022.94 989.441 4007.27 974.08C3938.67 906.83 3851.37 859.474 3757 840.6C3729.89 835.179 3702.68 831 3675 831C3668.6 831 3662.36 830.157 3656 830.015C3653.9 829.968 3650.38 829.496 3648.66 831.028C3646.61 832.853 3648.61 836.136 3649.56 838C3652.99 844.771 3656.86 851.472 3660.73 858C3676.82 885.109 3692.57 912.507 3707.99 940C3757.48 1028.26 3808.95 1115.48 3859.72 1203C3873.63 1226.99 3886.93 1251.48 3901.61 1275C3905.08 1280.56 3908.39 1286.34 3911.71 1292C3913.9 1295.73 3915.05 1298.95 3919 1301M3215 1089L3760 1089C3755.76 1078.87 3749.26 1069.42 3743.65 1060C3735.76 1046.76 3728.31 1033.26 3720.45 1020C3696.56 979.679 3673.83 938.607 3650.42 898C3641.17 881.962 3631.97 865.874 3622.45 850C3619.53 845.129 3616.33 834.924 3610.81 832.604C3606.68 830.864 3602.07 832.848 3598 833.626C3592.42 834.693 3586.62 834.772 3581 835.58C3552.93 839.61 3524.95 846.102 3498 854.999C3489.02 857.962 3479.71 860.677 3471 864.334C3465.08 866.818 3459.83 870.505 3454 873.049C3447.47 875.896 3440.45 877.587 3434 880.63C3366.21 912.624 3305.03 962.58 3259.66 1022C3243.53 1043.12 3226.33 1064.73 3215 1089M4084 1072L4067.86 1100L4019.33 1184L3886.09 1415L3812 1544L4029 1544L4087 1544C4092.87 1544 4104.56 1546.23 4109.61 1542.97C4112.18 1541.31 4113.13 1537.65 4114.28 1535C4116.72 1529.35 4119.23 1523.76 4121.42 1518C4130.7 1493.65 4137.2 1469.05 4143.86 1444C4152.18 1412.75 4155.23 1380.18 4156.01 1348C4157.55 1285.25 4148.26 1225.68 4128.61 1166C4121.42 1144.16 4111.9 1123.66 4101.94 1103C4097.09 1092.93 4091.98 1079.94 4084 1072M3199 1119C3196.57 1128.64 3190.96 1137.64 3187.54 1147C3179.53 1168.97 3171.73 1191.19 3166.43 1214C3157.19 1253.78 3154 1294.22 3154 1335C3154 1351.49 3153.59 1367.54 3155.17 1384C3158.25 1416.13 3166.05 1447.03 3174.51 1478C3182.46 1507.07 3194.59 1535.07 3208.08 1562C3211.31 1568.44 3214.72 1574.74 3218.28 1581C3220.42 1584.76 3222.26 1588.71 3226 1591L3245.83 1556L3289.15 1481L3426.87 1242L3471.45 1165L3487.01 1138L3497 1119L3199 1119z" />
  <path style="fill:#fefefe; stroke:none;" d="M4420 1154C4417.03 1170.01 4419 1187.74 4419 1204L4419 1297L4419 1587L4419 1690L4419 1715C4419 1717.63 4418.27 1721.93 4420.6 1723.82C4423.71 1726.34 4430.24 1725.98 4434 1726C4444.33 1726.05 4454.67 1726 4465 1726C4506.31 1726 4547.78 1726.84 4589 1725.04C4616.27 1723.85 4643.82 1726.76 4671 1724.17C4674.97 1723.79 4679.06 1724.44 4683 1723.85C4686.31 1723.36 4688.79 1721.06 4692 1720.31C4696.2 1719.34 4700.74 1720.36 4705 1719.89C4708.38 1719.52 4710.84 1717.53 4714 1716.56C4717.85 1715.37 4722.09 1715.95 4726 1714.78C4733.21 1712.61 4739.94 1709.08 4747 1706.57C4749.91 1705.54 4753.1 1705.65 4756 1704.51C4761.08 1702.5 4765.83 1699.35 4771 1697.58C4773.33 1696.78 4775.76 1696.81 4778 1695.69C4781.69 1693.83 4784.43 1690.54 4788 1688.51C4790.83 1686.9 4794.11 1686.58 4796.99 1684.98C4808.52 1678.55 4818.57 1669.75 4829 1661.85C4837.74 1655.22 4846.29 1649.01 4853.96 1641C4863.68 1630.85 4873.7 1618.85 4881.24 1607C4884.28 1602.22 4885.67 1596.6 4888.6 1592C4890.68 1588.73 4893.97 1586.44 4895.84 1583C4900.32 1574.72 4902.1 1565.63 4905.58 1557C4906.76 1554.07 4909.3 1551.97 4910.4 1549C4912.91 1542.19 4913.99 1534.95 4916.13 1528C4916.98 1525.23 4918.68 1522.81 4919.43 1520C4920.66 1515.42 4919.23 1510.57 4920.31 1506C4921.18 1502.36 4924.1 1499.74 4924.77 1496C4925.89 1489.81 4924.51 1483.26 4925.29 1477C4925.86 1472.43 4928.05 1468.46 4928.78 1464C4931.32 1448.5 4930.98 1430.67 4929.91 1415C4929.27 1405.61 4926.43 1397.18 4925.29 1388C4924.38 1380.73 4925.86 1373.23 4924.7 1366C4923.99 1361.62 4920.79 1358.33 4920.15 1354C4919.51 1349.71 4920.59 1345.25 4919.53 1341C4918.74 1337.83 4916.81 1335.1 4915.84 1332C4913.69 1325.11 4912.86 1317.81 4910.26 1311C4909.27 1308.41 4907.21 1306.47 4906.01 1304C4904.03 1299.93 4903.18 1295.18 4901.32 1291C4899.01 1285.79 4895.67 1280.99 4892.95 1276C4890.19 1270.92 4888.43 1264.75 4885.4 1260C4882.72 1255.8 4878.33 1252.93 4875.31 1249C4873.44 1246.56 4872.68 1243.52 4870.69 1241.17C4852.4 1219.58 4827.92 1203.47 4803 1191.01C4795.35 1187.18 4788.05 1182.46 4780 1179.37C4769.99 1175.53 4759.54 1171.48 4749 1169.3C4745.71 1168.62 4742.27 1169.46 4739 1168.69C4735.36 1167.82 4732.74 1164.9 4729 1164.23C4723.43 1163.22 4717.57 1164.79 4712 1163.66C4708 1162.84 4705.05 1159.75 4701 1159.15C4692.8 1157.93 4684.24 1159.76 4676 1158.83C4670.66 1158.22 4666.34 1154.78 4661 1154.17C4652.19 1153.17 4642.86 1154 4634 1154L4581 1154L4420 1154M5166 1154C5165.43 1159.11 5162 1162.24 5160.57 1167C5157.5 1177.22 5155.12 1188.02 5151.4 1198C5150.35 1200.81 5147.77 1202.57 5146.6 1205.29C5142.05 1215.82 5140.2 1227.31 5136.26 1238C5134.26 1243.45 5130.85 1248.47 5128.84 1254C5128.01 1256.28 5128.18 1258.72 5127.42 1261C5126.58 1263.5 5124.79 1265.53 5123.89 1268C5123.06 1270.27 5123.2 1272.73 5122.42 1275C5118.83 1285.47 5114.03 1295.63 5110 1306C5107.49 1312.48 5106.15 1319.5 5103.5 1326C5102.49 1328.47 5100.65 1330.49 5099.74 1333C5098.8 1335.58 5099.16 1338.4 5098.28 1341C5093.2 1355.93 5086.05 1370.08 5081.14 1385C5079.32 1390.55 5078.43 1396.52 5076.41 1402C5075.33 1404.91 5073 1407.1 5071.89 1410C5067.62 1421.18 5065.31 1432.87 5061 1444C5058.76 1449.77 5055.08 1455.11 5053.14 1461C5051.12 1467.14 5050.48 1474.05 5048.15 1480C5047.02 1482.86 5044.79 1485.11 5043.72 1488C5036.45 1507.68 5029.73 1527.17 5023.3 1547C5018.56 1561.63 5011.13 1575.33 5006.56 1590C5005.85 1592.28 5006.07 1594.73 5005.27 1597C5003.08 1603.21 4998.99 1608.84 4996.74 1615C4992.71 1626.04 4990.32 1637.79 4986.39 1649C4982.8 1659.22 4976.96 1668.67 4973.58 1679C4972.73 1681.6 4973.2 1684.41 4972.26 1687C4967.95 1698.85 4959.11 1712.1 4959 1725C4987.8 1727.27 5017.08 1726 5046 1726C5064.67 1726 5084.78 1728.17 5103 1724C5103.76 1714.42 5108.49 1704.99 5111.42 1696C5112.37 1693.07 5111.58 1689.91 5112.6 1687C5113.49 1684.46 5115.51 1682.54 5116.4 1680C5117.2 1677.74 5116.83 1675.28 5117.56 1673C5118.48 1670.14 5120.64 1667.89 5121.49 1665C5123.59 1657.84 5124.39 1650.2 5126.51 1643C5127.37 1640.11 5129.52 1637.86 5130.44 1635C5131.17 1632.72 5130.8 1630.26 5131.6 1628C5132.61 1625.13 5134.93 1623 5135.68 1620C5137.25 1613.74 5138.45 1605.45 5145.02 1602.03C5148.21 1600.36 5152.53 1601 5156 1601L5178 1601L5259 1601L5317 1601C5324.13 1601 5334.14 1599.14 5339.89 1604.28C5343.82 1607.79 5343.22 1611.39 5344.31 1616C5345.46 1620.85 5347.83 1626.17 5349.4 1631C5353.19 1642.61 5357.39 1653.53 5361.28 1665C5363.99 1673 5364.74 1682.02 5367.73 1690C5368.67 1692.49 5370.55 1694.48 5371.41 1697C5372.19 1699.27 5371.91 1701.74 5372.74 1704C5373.77 1706.83 5375.98 1709.02 5376.69 1712C5377.79 1716.65 5376.23 1721.76 5381.3 1724.57C5384.98 1726.6 5389.97 1726 5394 1726L5419 1726L5485 1726C5497.95 1726 5511.43 1727.32 5524 1724L5515.8 1704L5501 1658L5492.65 1638L5478.58 1598L5477.42 1591L5464.99 1561L5459.11 1540L5454.6 1532L5449.42 1512L5436.72 1481L5435.28 1473L5418 1429L5416.42 1421L5403.58 1387L5402.13 1379L5390 1350L5383.97 1329L5380.01 1322L5378.42 1314L5375.58 1308L5374.13 1300L5361.72 1270L5360.41 1262L5351.6 1242L5350.43 1235L5343.72 1219L5342.41 1212L5337.51 1203L5332.4 1184L5328.31 1176L5324.11 1162L5320.58 1155.18L5308 1154L5279 1154L5166 1154M5592 1154L5592 1725L5654 1726L5717 1724L5717 1572L5717 1477L5717 1412C5717 1399.82 5718.07 1387.07 5716.42 1375C5715.32 1366.92 5714.17 1359.16 5713.97 1351C5713.89 1348.05 5713.33 1343.31 5717.07 1342.21C5720.11 1341.31 5723.14 1345.01 5724.85 1347C5729.93 1352.88 5733.33 1361.27 5737.29 1368C5742.02 1376.07 5747.39 1384.29 5752.58 1392C5754.55 1394.92 5757.47 1397.06 5759.41 1400C5766.9 1411.31 5773.5 1423.5 5780.85 1434.96C5782.88 1438.11 5786.31 1439.96 5788.4 1443.04C5790.28 1445.81 5790.77 1449.2 5792.72 1452C5803.5 1467.48 5813.98 1483.38 5824.42 1499C5830.86 1508.64 5836.11 1519.37 5842.58 1529C5848.65 1538.02 5854.71 1546.9 5860.72 1556C5862.65 1558.91 5865.53 1561.06 5867.4 1564C5868.95 1566.44 5868.93 1569.46 5870.6 1571.83C5872.49 1574.52 5875.45 1576.23 5877.26 1579.01C5881.26 1585.14 5884.46 1591.89 5888.58 1598C5890.55 1600.92 5893.5 1603.03 5895.4 1606C5896.98 1608.48 5897.02 1611.51 5898.6 1614C5900.25 1616.59 5902.74 1618.54 5904.57 1621C5909.17 1627.19 5912.69 1634.49 5916.84 1641C5918.71 1643.93 5921.52 1646.09 5923.4 1649C5924.81 1651.18 5925.22 1653.78 5926.56 1656C5935.85 1671.34 5946.91 1685.86 5956.46 1701C5959.51 1705.85 5963.09 1710.19 5966.16 1715C5968.08 1718 5969.04 1721.24 5972.05 1723.44C5979.43 1728.82 5994.32 1726 6003 1726L6075 1726L6094 1726C6097.06 1725.98 6100.96 1726.25 6103.68 1724.57C6106.54 1722.8 6105.99 1718.9 6106 1716L6106 1691L6106 1586L6106 1154L5982 1154L5982 1438L5982 1505C5982 1509.41 5984.09 1524.62 5976.57 1524.5C5973.15 1524.45 5969.81 1519.51 5968.15 1517C5966.49 1514.5 5965.94 1511.58 5964.46 1509C5960.11 1501.46 5954.87 1494.39 5950.32 1487C5939.52 1469.5 5927.03 1453.02 5915.58 1436C5906.26 1422.13 5898.49 1406.95 5889.28 1393C5887.35 1390.09 5884.47 1387.94 5882.6 1385C5881.05 1382.56 5881.06 1379.54 5879.4 1377.17C5877.75 1374.83 5875.22 1373.27 5873.51 1370.96C5868.78 1364.54 5865.72 1356.65 5861.4 1350C5859.48 1347.05 5856.52 1344.95 5854.6 1342C5853.18 1339.82 5852.82 1337.18 5851.4 1335C5841.82 1320.21 5830.99 1306.02 5821.54 1291C5814.48 1279.76 5807.84 1268.01 5800.42 1257C5798.45 1254.08 5795.52 1251.95 5793.6 1249C5792.18 1246.82 5791.82 1244.19 5790.4 1242C5788.74 1239.44 5786.28 1237.52 5784.56 1235C5780.06 1228.37 5776.77 1220.69 5772.26 1214.09C5770.63 1211.7 5768.12 1210.15 5766.32 1207.91C5763.79 1204.77 5763.32 1200.46 5761.23 1197C5755.42 1187.37 5748.75 1178.17 5742.33 1169C5739.29 1164.67 5736.66 1157.73 5731.87 1155.03C5728.58 1153.18 5723.63 1154 5720 1154L5693 1154L5592 1154M6182 1154L6182 1233L6182 1252C6182 1254.41 6181.45 1258.11 6183.6 1259.82C6185.95 1261.68 6190.23 1261 6193 1261L6215 1261L6303 1261C6312.33 1261 6321.67 1260.87 6331 1261C6335.16 1261.06 6339.66 1261.62 6341.4 1266.04C6342.56 1269.01 6342 1272.88 6342 1276L6342 1297L6342 1368L6342 1610L6342 1695L6342 1716C6342.01 1718.47 6341.46 1722.2 6343.6 1723.99C6345.81 1725.82 6350.27 1725.84 6353 1725.96C6360.97 1726.31 6369.02 1726 6377 1726L6435 1726C6447.67 1726 6460.42 1726.59 6473 1725L6473 1380L6473 1294L6473 1273L6475.32 1263.43L6488 1261L6518 1261L6636 1260L6636 1154L6182 1154M6708 1724L6756 1726L6831 1726L7053 1725L7053 1618L6898 1618L6860 1618C6855.03 1618 6848.99 1618.99 6845.32 1614.85C6841.75 1610.83 6843 1603.97 6843 1599L6843 1559L6843 1514C6843 1508.6 6841.64 1501.32 6846.15 1497.32C6849.41 1494.42 6853.96 1495 6858 1495L6882 1495L6983 1495L7013 1495C7016.18 1495 7021.65 1495.94 7024.01 1493.26C7025.98 1491.02 7025.92 1486.79 7025.99 1484C7026.15 1477.34 7026 1470.66 7026 1464C7026 1437.3 7026.14 1410.62 7025 1384L6898 1384L6863 1384C6858.5 1384 6852.13 1385.12 6848.02 1382.97C6840.36 1378.97 6843 1366.15 6843 1359L6843 1289C6843 1282.37 6840.14 1267.14 6846.15 1262.74C6849.42 1260.35 6854.19 1261 6858 1261L6886 1261L6994 1261L7026 1261C7029.5 1261 7035.66 1262.13 7038.4 1259.4C7040.47 1257.33 7039.99 1253.66 7040 1251L7040 1232C7040 1205.97 7040.12 1179.96 7039 1154L6798 1154L6734 1154L6718 1154L6710.43 1155.03L6708 1165L6708 1190L6708 1294L6708 1724M1620 1743L1742 1743L1742 1435C1742 1411.14 1743.43 1386.74 1741.17 1363C1740.63 1357.36 1738.48 1341.67 1745.06 1338.92C1752.96 1335.62 1752.4 1349.37 1753.58 1353C1754.38 1355.46 1756.07 1357.46 1756.69 1360C1758.99 1369.35 1763.4 1377.77 1766.42 1387C1767.27 1389.6 1766.84 1392.4 1767.72 1395C1772.07 1407.82 1776.33 1421.76 1782.01 1434C1782.98 1436.1 1784.63 1437.8 1785.4 1440C1786.43 1442.93 1785.74 1446.09 1786.97 1449C1789.65 1455.31 1793.15 1461.58 1795.4 1468C1797.74 1474.69 1798.27 1482.26 1800.74 1489C1802.89 1494.89 1807.34 1500.1 1809.4 1506C1810.31 1508.58 1809.73 1511.4 1810.58 1514C1812.8 1520.75 1816.2 1527.23 1818.42 1534C1819.27 1536.6 1818.8 1539.41 1819.74 1542C1822.31 1549.06 1825.99 1555.82 1828.42 1563C1830.28 1568.51 1831.12 1574.32 1833.58 1579.71C1834.81 1582.4 1837.36 1584.18 1838.4 1587C1839.22 1589.26 1838.77 1591.7 1839.31 1594C1839.91 1596.54 1841.62 1598.55 1842.42 1601C1843.26 1603.6 1842.73 1606.38 1843.43 1609C1844.22 1611.95 1846.43 1614.15 1847.41 1617C1849.71 1623.66 1851.59 1630.31 1853.87 1637C1855.87 1642.86 1859.45 1648.23 1861.41 1654C1862.18 1656.27 1861.8 1658.74 1862.6 1661C1863.49 1663.54 1865.51 1665.46 1866.4 1668C1867.2 1670.26 1866.8 1672.74 1867.6 1675C1868.61 1677.87 1870.95 1680 1871.68 1683C1872.33 1685.63 1871.73 1688.39 1872.58 1691C1875.34 1699.47 1878.96 1707.5 1881.51 1716C1884.38 1725.57 1890.99 1732.65 1891 1743L2004 1743L2007.86 1732L2013.58 1711L2017.97 1703L2026.45 1677L2027.6 1668L2031.57 1661L2033.57 1653L2040.11 1639L2041.6 1629L2046.26 1621L2051.58 1601L2060.4 1580L2061.58 1573L2069.42 1553L2070.6 1544L2074.49 1537L2085.01 1506L2093.66 1484L2102.42 1457L2103.6 1450L2107.4 1443L2108.6 1435L2117.26 1414L2118.6 1406L2122.49 1399L2128.03 1380L2131.42 1373L2141.2 1345L2142.6 1335L2147 1328C2154.56 1336.17 2152 1348.51 2152 1359L2152 1436L2152 1743L2199 1744L2284 1743L2284 1328L2284 1212L2284 1180C2284 1176.04 2285.11 1169.95 2283.26 1166.32C2281.56 1162.98 2276.07 1164 2273 1164L2241 1164L2133 1164L2106 1164C2101.91 1164 2097.46 1163.45 2094.13 1166.32C2087.75 1171.82 2087.89 1183.66 2085.41 1191C2084.56 1193.52 2082.65 1195.5 2081.74 1198C2080.8 1200.59 2081.31 1203.42 2080.4 1206C2079.51 1208.54 2077.49 1210.46 2076.6 1213C2075.8 1215.26 2076.18 1217.73 2075.41 1220C2074.56 1222.52 2072.65 1224.5 2071.74 1227C2069.62 1232.8 2068.51 1239.11 2066.42 1245C2063.87 1252.15 2060.34 1258.87 2057.74 1266C2055.27 1272.74 2054.74 1280.31 2052.4 1287C2050.02 1293.8 2045.91 1300.15 2043.59 1307C2042.82 1309.27 2043.17 1311.73 2042.42 1314C2041.58 1316.5 2039.79 1318.53 2038.89 1321C2037.95 1323.59 2038.28 1326.4 2037.42 1329C2035.05 1336.17 2031.46 1342.93 2028.89 1350C2027.95 1352.59 2028.28 1355.4 2027.42 1358C2025.62 1363.44 2022.58 1368.56 2020.72 1374C2019.95 1376.28 2020.2 1378.74 2019.4 1381C2018.37 1383.89 2016.09 1386.1 2015.03 1389C2013.47 1393.3 2011.33 1398.6 2010.31 1403C2009.7 1405.63 2010.31 1408.41 2009.4 1411C2008.51 1413.54 2006.49 1415.46 2005.6 1418C2003.18 1424.87 2001.82 1432.13 1999.4 1439C1998.51 1441.54 1996.49 1443.46 1995.6 1446C1993.23 1452.73 1992.74 1460.32 1990.4 1467C1989.51 1469.54 1987.55 1471.52 1986.51 1474C1985.44 1476.56 1985.41 1479.41 1984.46 1482C1982.46 1487.4 1979.58 1492.54 1977.72 1498C1976.73 1500.94 1977.26 1504.11 1976.07 1507C1974.91 1509.79 1972.93 1512.09 1971.99 1515C1971.05 1517.94 1971.38 1521.1 1970.42 1524C1969.61 1526.45 1967.9 1528.46 1967.31 1531C1966.7 1533.64 1967.28 1536.4 1966.42 1539C1965.59 1541.5 1963.79 1543.53 1962.89 1546C1960.45 1552.72 1962.81 1558.01 1957.56 1563.98C1956.18 1565.54 1954.36 1567.7 1952.02 1567.37C1944.46 1566.32 1947.38 1550.22 1945.46 1545C1944.56 1542.58 1942.91 1540.54 1942.31 1538C1941.8 1535.8 1942.27 1533.41 1941.4 1531.29C1940.27 1528.55 1937.64 1526.82 1936.6 1524C1935.2 1520.17 1936.68 1515.88 1935.42 1512C1931.28 1499.28 1926.93 1486.66 1922.12 1474C1917 1460.55 1913.01 1446.68 1907.97 1433C1906.9 1430.11 1904.61 1427.89 1903.6 1425C1902.69 1422.42 1903.25 1419.64 1902.7 1417C1901.73 1412.35 1899.99 1406.5 1898.42 1402C1895.94 1394.92 1892.35 1388.16 1889.88 1381C1887.5 1374.13 1886.22 1366.79 1883.48 1360C1881.18 1354.28 1877.6 1348.71 1875.6 1343C1874.58 1340.1 1875.31 1336.94 1874.45 1334C1872.52 1327.41 1868.98 1321.4 1866.73 1315C1865.93 1312.73 1866.2 1310.26 1865.4 1308C1864.5 1305.47 1862.5 1303.53 1861.6 1301C1860.79 1298.74 1861.09 1296.26 1860.26 1294C1859.23 1291.17 1857.03 1288.98 1856.31 1286C1855.76 1283.69 1856.16 1281.28 1855.42 1279C1853.16 1272.11 1848.97 1265.76 1846.6 1259C1845.58 1256.09 1846.37 1252.96 1845.69 1250C1844.64 1245.5 1842.46 1240.47 1840.99 1236C1835.95 1220.68 1828.59 1206.35 1823.58 1191C1822.74 1188.4 1823.31 1185.58 1822.4 1183C1821.39 1180.13 1819.09 1178 1818.31 1175C1817.52 1171.91 1817.99 1168.82 1815.57 1166.32C1812.63 1163.29 1807.83 1164 1804 1164L1777 1164L1664 1164L1632 1164C1627.46 1164.01 1622.53 1164.03 1620.6 1169.02C1618.85 1173.57 1620 1180.18 1620 1185L1620 1220L1620 1338L1620 1743M2348 1743L2493 1743L2498.4 1731.71L2499.58 1725L2502.42 1719L2503.32 1711L2507.4 1703L2508.59 1695L2512.27 1688L2518.58 1664L2521.69 1657L2522.6 1649L2526.44 1642L2531.04 1629L2536.06 1619.6L2549 1618L2578 1618L2689 1618L2720 1618L2733.94 1620.32L2738.99 1629L2747.74 1656L2751.41 1663L2752.32 1670L2756.4 1678L2757.6 1685L2761.4 1692L2762.23 1702L2766.72 1717L2770.99 1725L2772.58 1733L2776 1743L2922 1743L2918.58 1733L2916.83 1726L2912.32 1718L2907.45 1697L2898.59 1677L2888.97 1647L2884.6 1639L2883.42 1631L2873.86 1603L2865.59 1586L2864.69 1579L2860.11 1566L2855.6 1558L2854.69 1550L2851.58 1543L2849.98 1535L2842.16 1520L2840.4 1512L2836.6 1505L2835.42 1497L2827.6 1477L2820.99 1454L2814.01 1440L2812.4 1432L2808.6 1425L2798.26 1390L2789.58 1371L2783.4 1350L2779.6 1343L2778.42 1335L2765.77 1303L2756.58 1277L2755.26 1269L2746.58 1249L2745.13 1241L2736.35 1217L2732.59 1210L2731.26 1203L2727.59 1196L2726.42 1188L2717 1164L2600 1164L2570 1164L2558.6 1165.03L2556.02 1173L2548.58 1193L2547.4 1201L2538.58 1217L2537.42 1225L2520.39 1268L2513.42 1291L2509.6 1298L2508.03 1307L2499.42 1329L2495.6 1336L2489.42 1358L2476.6 1389L2471.4 1410L2462.72 1426L2461.27 1433L2457.43 1441L2456.4 1448L2452.6 1455L2451.41 1462L2443.87 1478L2442.68 1486L2438.6 1494L2437.4 1501L2433.6 1508L2428.41 1525L2419.58 1545L2418.4 1553L2414.58 1560L2400.58 1597L2399.42 1605L2386.58 1635L2385.69 1642L2381.74 1650L2380.4 1657L2371.88 1675L2367.31 1689L2366.4 1696L2362.56 1703L2352.27 1733L2348 1743z" />
  <path style="fill:#fef201; stroke:none;" d="M2547 1202L2548 1203L2547 1202M6631 1260L6632 1261L6631 1260z" />
  <path style="fill:#313131; stroke:none;" d="M4557.32 1263.03C4554.48 1264.92 4555.01 1269.05 4555 1272L4555 1297L4555 1402L4555 1557L4555 1598C4555 1602.28 4553.55 1609.97 4556.03 1613.68C4558.07 1616.74 4562.85 1616 4566 1616L4593 1616C4611.53 1616 4631.64 1618.21 4650 1615.71C4654.27 1615.13 4657.86 1612.93 4662 1611.97C4665.58 1611.14 4669.54 1611.56 4673 1610.42C4675.84 1609.47 4678.1 1607.4 4681 1606.57C4689.42 1604.15 4699.27 1601.13 4706.83 1596.46C4737.69 1577.38 4762.37 1547.41 4774.74 1514C4775.66 1511.51 4777.56 1509.52 4778.41 1507C4779.29 1504.4 4778.7 1501.64 4779.31 1499C4779.98 1496.13 4782.02 1493.87 4782.69 1491C4783.81 1486.16 4782.94 1480.97 4784.06 1476.04C4784.74 1473.05 4786.97 1470.9 4787.69 1467.96C4789.38 1460.98 4788 1452.17 4788 1445L4788 1417C4788 1412.26 4788.81 1406.66 4787.69 1402.04C4786.97 1399.1 4784.73 1396.92 4783.98 1393.96C4782.98 1390.04 4783.58 1385.84 4782.45 1382C4780.38 1374.95 4777.52 1368.61 4774.89 1361.91C4772.45 1355.69 4771.06 1349.16 4767.53 1343.29C4765.86 1340.52 4763.32 1338.39 4761.54 1335.71C4760.24 1333.75 4759.87 1331.36 4758.46 1329.46C4749.81 1317.81 4738.38 1307.74 4727.42 1298.46C4724.74 1296.18 4722.91 1292.8 4719.83 1291.02C4708.94 1284.74 4695.99 1279.64 4684.09 1275.78C4681.53 1274.95 4679.59 1272.95 4676.96 1272.31C4674.04 1271.61 4670.95 1272.24 4668 1271.66C4664.8 1271.02 4662.17 1268.97 4659 1268.3C4652.31 1266.88 4644.84 1267.79 4638 1266.81C4633.86 1266.22 4630.96 1263.24 4627 1262.31C4620.25 1260.74 4611.92 1262 4605 1262L4571 1262C4567.16 1262 4560.67 1260.79 4557.32 1263.03M5240 1281L5235.69 1296L5232.31 1304L5231.66 1312.99L5227.58 1321.09L5226.4 1329L5222.6 1336L5221.4 1343.91L5217.6 1350.09L5216.69 1357.91L5213.31 1365.04L5208.11 1386L5199.57 1408L5197.87 1418L5194 1435C5187.58 1436.95 5190.24 1441.76 5188.42 1446.83C5184.88 1456.68 5180.09 1467.2 5180 1478C5173.99 1479.82 5176 1483.95 5174.68 1488.91C5173.98 1491.56 5171.91 1493.19 5170 1495C5175.73 1500.85 5190.24 1498 5198 1498L5274 1498C5281.33 1498 5288.67 1498.05 5296 1498C5298.52 1497.98 5302.32 1498.37 5303.69 1495.68C5306.4 1490.35 5302.1 1481.79 5300.12 1477C5298.78 1473.77 5299.56 1470.31 5298.42 1467.09C5296.04 1460.38 5292.06 1453.86 5290.31 1446.91C5289.75 1444.65 5290.17 1442.26 5289.57 1440C5288.78 1437.05 5286.55 1434.86 5285.59 1432C5284.72 1429.43 5285.31 1426.65 5284.42 1424.09C5280.44 1412.72 5275.63 1401.53 5271.72 1390C5270.84 1387.38 5271.28 1384.65 5270.7 1382C5270.07 1379.14 5268.15 1376.83 5267.43 1374C5266.76 1371.38 5267.33 1368.62 5266.68 1366.01C5265.82 1362.56 5262.75 1360.38 5261.72 1356.96C5260.36 1352.43 5258.37 1347.53 5257.31 1343C5256.78 1340.72 5257.2 1338.33 5256.42 1336.09C5255.64 1333.88 5253.89 1332.22 5253.31 1329.91C5252.6 1327.05 5253.51 1323.92 5252.4 1321.13C5251.42 1318.66 5248.93 1317.32 5247.89 1314.87C5246.7 1312.05 5247.33 1308.89 5246.44 1306C5245.47 1302.84 5243.48 1300.38 5243.11 1297C5242.48 1291.28 5244.47 1285.37 5240 1281M2596 1421C2588.44 1423.29 2592.09 1433.09 2588.71 1439C2586.39 1443.07 2586.88 1446.78 2585.26 1450.91C2584.38 1453.18 2582.42 1454.8 2581.59 1457.09C2580.67 1459.64 2581.29 1462.4 2580.69 1465C2580.1 1467.54 2578.38 1469.55 2577.58 1472C2576.74 1474.6 2577.26 1477.4 2576.42 1480C2575.07 1484.12 2572.67 1487.77 2571.4 1492C2569.93 1496.9 2564.75 1505.64 2568.03 1510.68C2569.72 1513.28 2573.3 1512.98 2576 1513C2583.33 1513.05 2590.67 1513 2598 1513L2672 1513L2691 1513C2693.61 1513 2697.39 1513.58 2699.66 1511.97C2703.34 1509.37 2698.29 1502.56 2698.04 1499C2697.66 1493.38 2695.03 1490.2 2693.57 1485C2692.85 1482.42 2693.35 1479.6 2692.4 1477.09C2691.41 1474.46 2689.03 1472.75 2688.32 1469.96C2687.73 1467.68 2688.16 1465.27 2687.42 1463C2686.24 1459.38 2684.34 1456.92 2684 1453C2683.61 1448.48 2681.03 1446.08 2679.6 1442C2678.58 1439.09 2679.38 1435.92 2677.99 1433.09C2676.91 1430.89 2674.96 1429.36 2674.32 1426.91C2673.64 1424.32 2674.27 1421.58 2673.42 1419C2670.98 1411.64 2667.36 1404.58 2665.43 1397C2664.76 1394.38 2665.3 1391.58 2664.4 1389C2663.51 1386.46 2661.54 1384.5 2660.56 1382C2659.43 1379.13 2659.54 1375.95 2658.73 1373C2658.03 1370.49 2656.38 1368.46 2655.58 1366C2654.75 1363.43 2655.31 1360.64 2654.42 1358.09C2653.64 1355.88 2651.89 1354.22 2651.31 1351.91C2650.67 1349.33 2651.34 1346.57 2650.4 1344.04C2649.39 1341.31 2646.83 1339.6 2645.74 1336.91C2644.73 1334.41 2645.3 1331.62 2644.42 1329.09C2643.52 1326.53 2641.58 1324.73 2641.15 1321.96C2640.5 1317.79 2641.95 1313.1 2640.02 1309.17C2638.85 1306.79 2635.29 1301.48 2632.1 1302.5C2627.26 1304.04 2629.12 1315.03 2627.63 1319C2625.26 1325.28 2622.68 1331.68 2620.58 1338C2619.73 1340.57 2620.13 1343.37 2619.11 1345.91C2618.04 1348.57 2615.59 1350.34 2614.6 1353.04C2613.56 1355.88 2614.23 1359.06 2613.74 1362C2613.18 1365.41 2611.72 1368.71 2610.7 1372C2605.54 1388.48 2596 1403.33 2596 1421M1741 1318C1741 1322.89 1740.31 1327.39 1744 1331L1744 1318L1741 1318z" />
  <path style="fill:#fef201; stroke:none;" d="M3391 1362C3375.04 1392.3 3356.44 1421.34 3339.33 1451C3321.72 1481.53 3305.12 1512.83 3286.94 1543C3276.2 1560.8 3265.99 1578.95 3255.67 1597C3252.32 1602.86 3244.34 1612.11 3244.2 1619C3244.13 1622.36 3247.02 1625.44 3248.86 1628C3253 1633.78 3257.24 1639.51 3261.75 1645C3280.36 1667.66 3299.86 1689.02 3322 1708.28C3417.36 1791.25 3538.13 1834 3664 1834L3638.31 1788L3599.42 1720L3477.01 1508L3419.85 1409L3401.06 1377L3391 1362M2471 1411L2472 1412L2471 1411M2836 1506L2837 1507L2836 1506M1936 1525L1937 1526L1936 1525M3550 1575C3552.88 1584.1 3559.29 1592.71 3564 1601C3573.34 1617.43 3582.91 1633.74 3592.55 1650C3616.07 1689.69 3637.37 1730.85 3661.82 1770C3670.5 1783.89 3678.89 1798.54 3686.59 1813C3689.18 1817.85 3692.86 1828.15 3698.19 1830.4C3706.01 1833.69 3719.93 1829.4 3728 1828.08C3754.25 1823.77 3779.52 1818.03 3805 1810.44C3896.53 1783.16 3979.09 1727.14 4040.25 1654C4054.55 1636.9 4067.64 1618.86 4079.53 1600C4084.53 1592.06 4090.67 1583.79 4094 1575L3550 1575M2912 1720L2913 1721L2912 1720M3273 2110.44C3263.73 2111.42 3254.24 2110.98 3245 2112.3C3220.43 2115.8 3196.48 2123.23 3175 2135.86C3158.36 2145.64 3143.21 2158.45 3130.58 2173C3121.5 2183.46 3113.69 2194.04 3108.45 2207C3104.19 2217.56 3102.44 2227.72 3101.96 2239C3101.48 2250.37 3101.52 2261.91 3104.59 2273C3115.08 2310.78 3149.23 2342.01 3183 2359.78C3219.37 2378.92 3262.67 2382.93 3303 2378.83C3327.9 2376.3 3352.1 2368.44 3374 2356.42C3390.31 2347.47 3405.15 2334.39 3417.96 2321C3427.09 2311.46 3435.51 2300.18 3440.77 2288C3444.9 2278.46 3446.98 2269.19 3448.75 2259C3459.95 2194.48 3399.06 2140.72 3344 2121.04C3333.42 2117.26 3322.12 2115.25 3311.09 2113.47C3301.48 2111.91 3292.01 2111.43 3282.29 2111.1C3279.1 2110.99 3276.23 2110.1 3273 2110.44M2393 2118.44C2383.73 2119.42 2374.24 2118.98 2365 2120.3C2340.94 2123.73 2317 2130.68 2296 2143.14C2275.62 2155.25 2256 2171.46 2243.67 2192C2224.02 2224.73 2224.45 2267.49 2244.31 2300C2252.63 2313.6 2264.61 2325.49 2277 2335.37C2317.56 2367.7 2372.72 2376.03 2423 2370.83C2447.23 2368.32 2469.32 2360.61 2491 2349.86C2505.39 2342.72 2517.72 2332.29 2529 2321C2538.56 2311.43 2546.39 2301.27 2552.12 2289C2556.37 2279.89 2558.82 2270.86 2560.26 2260.96C2562.02 2248.84 2561.87 2234.85 2559.4 2222.83C2555.07 2201.71 2542.99 2184 2528 2169C2501.91 2142.9 2468.4 2127.06 2432.04 2121.61C2419.77 2119.78 2405.37 2117.13 2393 2118.44M3763 2119.43C3754.02 2120.5 3745.01 2120.1 3736 2121.28C3715.1 2124.03 3694.92 2129.94 3676 2139.27C3625.57 2164.13 3588.1 2217.62 3603.49 2275C3606.58 2286.52 3611.46 2296.95 3617.88 2307C3625.76 2319.35 3637.39 2330.27 3649 2339.1C3687.29 2368.22 3736.12 2376.3 3783 2373.09C3814.03 2370.96 3844.77 2365.75 3872 2349.55C3879.22 2345.25 3889.7 2339.72 3893.68 2332C3896.17 2327.18 3895 2320.26 3895 2315L3895 2279L3895 2259C3894.99 2255.63 3895.27 2251.91 3892.68 2249.32C3889.32 2245.95 3883.32 2247 3879 2247L3854 2247C3849.88 2247 3845.02 2246.3 3841 2247.32C3832.74 2249.4 3834 2258.43 3834 2265L3834 2301C3834 2305.74 3835.13 2311.94 3830.85 2315.18C3827.36 2317.83 3822.12 2318.84 3818 2320.12C3806.57 2323.67 3794.9 2325.26 3783 2326.09C3739.16 2329.16 3683.2 2318.32 3666.7 2271C3664.35 2264.27 3663.04 2257.13 3663 2250C3662.96 2242.1 3663.19 2234.64 3665.44 2227C3682.5 2169.12 3758 2160.71 3808 2171.36C3816.76 2173.23 3825.01 2176.54 3833 2180.52C3836.96 2182.5 3841.58 2186.44 3846 2187.07C3850.1 2187.66 3853.18 2183.72 3855.58 2181C3860.92 2174.93 3866.5 2169.08 3871.84 2163C3873.93 2160.63 3877.69 2157.35 3877.97 2154C3878.23 2150.88 3875.2 2148.31 3872.98 2146.61C3867.13 2142.11 3859.73 2138.84 3853 2135.86C3829.68 2125.55 3803.45 2120.04 3778 2120C3772.99 2119.99 3767.97 2118.83 3763 2119.43M1790 2121.03C1786.63 2122.71 1782.92 2126.43 1781.6 2130C1780.19 2133.84 1781 2138.97 1781 2143L1781 2170L1781 2318L1781 2353C1781 2361.18 1780.6 2368.36 1789 2372.68C1793.59 2375.04 1799.99 2374 1805 2374C1817.51 2374 1841.83 2379.09 1847.4 2364C1849.49 2358.33 1848 2349.99 1848 2344L1848 2301C1848 2295.32 1846.06 2285.16 1849.03 2280.15C1850.75 2277.24 1853.97 2277.06 1857 2277C1863.33 2276.89 1869.67 2277 1876 2277L1956 2277C1962.67 2277 1969.33 2276.95 1976 2277C1979.3 2277.02 1983.06 2276.92 1984.97 2280.15C1987.71 2284.77 1986 2293.78 1986 2299L1986 2346C1986 2352.42 1984.03 2362.62 1988.32 2367.91C1996.78 2378.35 2017.96 2374 2030 2374C2034.57 2374 2040.8 2375.07 2045 2372.97C2048.37 2371.29 2052.08 2367.57 2053.4 2364C2054.81 2360.16 2054 2355.03 2054 2351L2054 2323L2054 2175L2054 2146C2054 2141.27 2054.84 2135.61 2053.68 2131C2052.67 2126.97 2048.65 2122.86 2045 2121.03C2040.8 2118.93 2034.57 2120 2030 2120C2017.45 2120 1992.2 2114.82 1986.6 2130C1984.42 2135.92 1986 2144.74 1986 2151L1986 2197C1986 2203.13 1988.17 2214.46 1984.97 2219.85C1983.06 2223.08 1979.3 2222.98 1976 2223C1969 2223.05 1962 2223 1955 2223L1878 2223L1859 2223C1856.15 2222.99 1852.66 2223.37 1850.32 2221.4C1847.85 2219.32 1848.02 2215.93 1848 2213C1847.95 2206.33 1848 2199.67 1848 2193L1848 2144C1848 2134.92 1848.74 2127.13 1840 2121.6C1833.53 2117.51 1820.45 2120 1813 2120C1806.43 2120 1795.98 2118.04 1790 2121.03M2718 2122.86C2714.87 2124.13 2711.8 2126.8 2710.6 2130C2709.37 2133.3 2710 2137.54 2710 2141C2710 2149.75 2707.27 2162.61 2715.02 2168.68C2719.94 2172.53 2728.12 2171 2734 2171L2780 2171C2785.41 2171 2797.54 2168.74 2801.4 2173.32C2804.03 2176.44 2803 2182.22 2803 2186L2803 2218L2803 2325L2803 2353C2803 2357.18 2802.2 2362.3 2804.6 2365.98C2808.55 2372.05 2814.55 2372 2821 2372L2846 2372C2850.31 2372 2855.9 2372.91 2860 2371.4C2863.91 2369.95 2867.21 2366.11 2867.85 2362C2869.78 2349.6 2868 2335.56 2868 2323L2868 2219L2868 2189C2868 2184.79 2867 2179.02 2868.6 2175.06C2871.26 2168.47 2884.33 2171 2890 2171L2943 2171C2950.24 2171 2958.51 2170.67 2960.68 2162C2961.54 2158.57 2961 2154.51 2961 2151C2961 2141.8 2963.95 2128.19 2954 2123.18C2949.01 2120.67 2941.43 2122 2936 2122L2896 2122L2771 2122L2735 2122C2729.77 2122 2722.93 2120.86 2718 2122.86M4268 2283C4289.51 2274.92 4308.81 2264.42 4320.91 2244C4343.08 2206.58 4326.45 2153.95 4286 2137.93C4264.45 2129.39 4241.83 2127.47 4219 2125.91C4190.48 2123.96 4161.61 2125 4133 2125L4096 2125C4091.2 2125 4084.21 2123.73 4080.06 2126.6C4074.96 2130.13 4076 2136.61 4076 2142L4076 2180L4076 2320L4076 2355C4076 2359.27 4074.93 2365.28 4078.32 2368.57C4081.77 2371.91 4087.62 2371 4092 2371L4122 2371C4126.93 2370.99 4132.31 2370.95 4134.97 2365.96C4137.26 2361.67 4136 2354.72 4136 2350L4136 2312C4136 2306.91 4133.98 2296.26 4138.32 2292.6C4141.07 2290.28 4145.67 2291 4149 2291L4173 2291C4180.06 2291 4188.05 2289.96 4195 2291.23C4204.32 2292.93 4213.52 2307.2 4219.42 2314C4229.53 2325.63 4240.49 2336.57 4250.83 2348C4256.92 2354.73 4263.39 2364.46 4271.01 2369.4C4275.54 2372.32 4282.85 2371 4288 2371L4328 2371C4332.26 2371 4343.87 2371.39 4342.25 2363.99C4341.47 2360.42 4337.44 2357.46 4335 2355C4329.84 2349.81 4325.16 2344.2 4320 2339C4302.15 2321.03 4284.67 2302.08 4268 2283M1367.06 2127.03C1361.37 2130.15 1363 2138.6 1363 2144L1363 2192L1363 2317L1363 2351C1363 2355.05 1361.88 2361.23 1364.03 2364.85C1366.41 2368.88 1372.03 2368 1376 2368L1404 2368C1407.57 2368 1412.65 2368.87 1415.85 2366.97C1420.29 2364.34 1419 2357.34 1419 2353L1419 2315C1419 2310.33 1417.36 2301.86 1422.15 2299.03C1425.98 2296.76 1432.71 2298 1437 2298L1471 2298C1478.63 2298 1486.28 2298.18 1493.91 2297.92C1533.44 2296.58 1586.33 2285.65 1602.11 2244C1606.09 2233.5 1607 2223.13 1607 2212C1607 2203.55 1606.52 2195.11 1603.91 2187C1585.8 2130.66 1515.82 2126 1466 2126L1437 2126L1388 2126C1382.13 2126 1372.33 2124.14 1367.06 2127.03M4478 2368C4491.68 2371.26 4507.97 2369 4522 2369C4527.39 2369 4533.55 2370.07 4537.67 2365.85C4541.65 2361.79 4544.14 2355.96 4546.78 2351C4550.55 2343.91 4554.68 2336.89 4558.8 2330C4561.27 2325.86 4563.62 2319.41 4568.05 2317.03C4571.2 2315.34 4575.56 2316 4579 2316L4601 2316L4684 2316L4708 2316C4711.54 2316 4715.77 2315.41 4718.81 2317.6C4723.16 2320.74 4725.73 2327.41 4728.23 2332C4732.63 2340.1 4737.26 2348.1 4742 2356C4744.05 2359.42 4745.85 2363.8 4748.63 2366.68C4752.06 2370.22 4758.53 2369 4763 2369L4792 2369C4797.55 2369 4803 2369.67 4808 2367L4794.68 2343L4790.76 2332L4709.42 2190L4683.58 2145L4670.96 2127.03L4658 2126L4628 2126L4614.17 2129.13L4603.04 2147L4577.96 2191L4516.57 2298L4491.8 2341L4478 2368M5815.06 2128.74C5807.75 2131.87 5817.55 2140.73 5820.25 2144C5831.96 2158.18 5842.96 2172.96 5854.87 2187C5871.65 2206.78 5886.97 2227.92 5903.42 2248L5917.25 2265C5919.98 2268.31 5923.45 2271.73 5924.57 2276C5926.32 2282.68 5925 2291.12 5925 2298L5925 2343L5925 2360C5925 2362.2 5924.53 2365.41 5926.03 2367.26C5928.36 2370.14 5934.76 2369 5938 2369L5965 2369C5968.83 2369 5974.27 2369.96 5977.85 2368.4C5983.26 2366.04 5981 2353.79 5981 2349L5981 2290C5981 2285.29 5980.1 2279.46 5981.85 2275C5983.61 2270.54 5987.45 2266.69 5990.4 2263L6005.6 2244C6026.18 2218.27 6046.69 2192.48 6067.58 2167C6074.87 2158.1 6082.06 2149.07 6089.12 2140C6091.52 2136.91 6096.96 2131.09 6090.94 2128.6C6085.29 2126.27 6076.05 2128 6070 2128L6050 2128C6046.46 2128 6042.36 2127.48 6039 2128.86C6031.42 2131.97 6025.62 2142.67 6020.87 2149C6009.45 2164.22 5997.49 2179.13 5985.6 2194C5977.67 2203.92 5969.82 2213.9 5962.12 2224C5960.2 2226.52 5956.08 2233.98 5952.16 2232.79C5949.18 2231.89 5946.82 2227.3 5945 2225C5939.21 2217.7 5933.55 2210.32 5927.79 2203C5914.69 2186.36 5901.23 2169.91 5888.47 2153C5884.63 2147.91 5880.61 2143.01 5876.66 2138C5874.15 2134.82 5871.72 2130.91 5868 2129.03C5865.01 2127.52 5861.23 2128 5858 2128L5837 2128C5830.63 2128 5820.99 2126.21 5815.06 2128.74M4972.15 2130.03C4968.12 2132.41 4969 2138.03 4969 2142L4969 2176L4969 2317L4969 2355C4969 2359.04 4967.6 2366.2 4972.15 2368.26C4975.78 2369.9 4981.11 2369 4985 2369L5011 2369C5014.24 2369 5020.64 2370.14 5022.97 2367.26C5025.3 2364.38 5024 2357.48 5024 2354L5024 2318C5024 2313.42 5022.38 2304.92 5026.32 2301.6C5029.61 2298.83 5036.01 2300 5040 2300L5076 2300C5109.25 2299.95 5148.91 2297.89 5178 2279.94C5220.98 2253.41 5224.98 2185.12 5185 2153.67C5170.18 2142.01 5151.22 2136.86 5133 2133.58C5097.75 2127.22 5061.69 2129 5026 2129L4988 2129C4983.48 2129 4976.18 2127.64 4972.15 2130.03M5395.15 2130.03C5391.12 2132.41 5392 2138.03 5392 2142L5392 2176L5392 2317L5392 2355C5392 2359.04 5390.6 2366.2 5395.15 2368.26C5398.78 2369.9 5404.11 2369 5408 2369L5435 2369C5438.57 2369 5444.61 2370 5446.97 2366.57C5450.17 2361.92 5448 2350.48 5448 2345L5448 2295C5448 2289.55 5446.18 2279.97 5449.03 2275.15C5450.94 2271.92 5454.7 2272.02 5458 2272C5464.67 2271.95 5471.33 2272 5478 2272L5565 2272L5588 2272C5590.95 2272.01 5595.08 2271.48 5596.97 2274.32C5598.39 2276.44 5598 2279.59 5598 2282L5598 2298L5598 2343C5598 2349.73 5596.53 2358.44 5598.32 2364.94C5599.71 2370.03 5605.89 2369 5610 2369L5639 2369C5642.39 2369 5647.71 2369.95 5650.68 2367.97C5654.12 2365.68 5653 2359.52 5653 2356L5653 2322L5653 2181L5653 2143C5653 2138.48 5654.15 2131.71 5648.94 2129.6C5643.24 2127.3 5634.09 2129 5628 2129L5608 2129C5605.34 2129.01 5601.67 2128.53 5599.6 2130.6C5595.98 2134.23 5598 2145.24 5598 2150L5598 2204C5598 2210.33 5598.04 2216.67 5598 2223C5597.98 2225.42 5598.27 2228.53 5596.4 2230.4C5594.33 2232.47 5590.66 2231.99 5588 2232L5567 2232L5481 2232C5473.33 2232 5465.67 2232.05 5458 2232C5454.7 2231.98 5450.94 2232.08 5449.03 2228.85C5445.61 2223.08 5448 2210.58 5448 2204L5448 2157C5448 2149.9 5449.48 2140.9 5447.68 2134.02C5446.33 2128.87 5441.38 2129.01 5437 2129L5408 2129C5404.19 2129 5398.56 2128.01 5395.15 2130.03z" />
  <path style="fill:#313131; stroke:none;" d="M2386 2164.42C2356.18 2168.34 2326.59 2175.67 2306.33 2200C2281.47 2229.84 2287.68 2275.9 2316 2300.82C2338.75 2320.83 2376.09 2330.6 2406 2326.71C2432.39 2323.28 2459.43 2316.47 2478.96 2296.96C2506.88 2269.08 2506.74 2220.41 2477.99 2193.09C2455.16 2171.41 2417.15 2160.33 2386 2164.42M1421.6 2169.03C1418.17 2171.75 1420 2182.06 1420 2186L1420 2237C1420 2241.23 1417.95 2253.08 1421.6 2255.97C1423.69 2257.62 1427.53 2257 1430 2257L1450 2257C1469.04 2257 1488.11 2257.81 1507 2255.33C1516.98 2254.02 1529.13 2251.23 1536.96 2244.53C1554.03 2229.92 1555.5 2190.83 1535 2178.88C1512.16 2165.55 1482.37 2168 1457 2168L1432 2168C1429.09 2168 1424.05 2167.09 1421.6 2169.03M5026.6 2170.03C5023.06 2172.83 5025 2183.91 5025 2188L5025 2240C5025 2244.23 5022.95 2256.08 5026.6 2258.97C5028.69 2260.62 5032.53 2260 5035 2260L5055 2260C5072.49 2260 5089.61 2259.91 5107 2258.17C5118.56 2257.01 5131.62 2255.13 5141 2247.62C5159.29 2232.97 5162.54 2194.17 5140.99 2180.76C5118.76 2166.93 5087.08 2169 5062 2169L5037 2169C5034.09 2169 5029.05 2168.09 5026.6 2170.03M4138.6 2172.03C4135.4 2174.56 4137 2183.37 4137 2187L4137 2229C4137 2232.79 4135.28 2242.34 4138.6 2244.97C4140.69 2246.62 4144.53 2246 4147 2246L4168 2246C4186.48 2246 4204.61 2245.35 4223 2244.09C4234.77 2243.28 4248.25 2242.06 4257.9 2234.24C4266.78 2227.03 4267 2215.41 4267 2205C4267 2196.12 4265.96 2186.48 4257.99 2181.1C4246.08 2173.07 4229.86 2172.32 4216 2171.99C4200.02 2171.59 4184.05 2171 4168 2171L4147 2171C4144.53 2171 4140.69 2170.38 4138.6 2172.03M3266 2172.42C3241.84 2175.6 3214.46 2180.13 3196.17 2198.18C3176.37 2217.73 3174.44 2253.1 3186.06 2277C3188.77 2282.57 3191.56 2288.47 3196.09 2292.82C3201.46 2297.96 3208.47 2301.78 3215 2305.22C3235.57 2316.05 3262.79 2321.56 3286 2318.71C3311.34 2315.6 3340.33 2309.47 3357.79 2289C3377.5 2265.88 3376.98 2219.9 3354.7 2198.46C3337.13 2181.56 3311.43 2175.17 3288 2172.83C3280.69 2172.1 3273.34 2171.46 3266 2172.42M4642 2186L4614.43 2234.42L4594 2271L4617 2272L4660 2272L4692 2271L4658.09 2211L4642 2186z" />
  <path style="fill:#fefefe; stroke:none;" d="M82 2496L82 2524L7760 2524L7760 2496L82 2496M2073 2871C2067.44 2863.1 2058.97 2857.38 2051 2852.08C2048.41 2850.35 2045.18 2847.52 2042 2847.12C2037.81 2846.6 2032.54 2851.08 2029.04 2853.03C2021.98 2856.97 2014.06 2859.71 2006.29 2861.9C1981.62 2868.86 1952.11 2866.38 1929 2855.86C1916.81 2850.32 1904.66 2842 1901.15 2828.29C1895.24 2805.21 1907.04 2787.32 1927.99 2777.99C1952.07 2767.27 1983.22 2765.23 2008.83 2771.47C2017.11 2773.48 2025.41 2776.94 2033 2780.77C2036.48 2782.53 2040.07 2785.89 2044 2786.46C2047.47 2786.97 2050.39 2784.54 2053 2782.62C2058.64 2778.49 2064.89 2774.69 2070 2769.91C2072.32 2767.73 2076.07 2764.6 2074.82 2761C2072.85 2755.29 2064.84 2751.13 2060 2748.2C2045.01 2739.15 2028.18 2733.72 2011 2730.75C1964.27 2722.67 1910.02 2730.17 1873 2761.73C1868.55 2765.53 1863.34 2769.04 1859.25 2773.17C1849 2783.51 1843.03 2798.41 1843.03 2813C1843.03 2825.64 1848.04 2836.11 1853.69 2847C1855.38 2850.25 1855.56 2853.92 1857.66 2857C1865.76 2868.92 1879.62 2879.01 1892 2886.08C1928.45 2906.89 1975.23 2909.98 2015.58 2901.11C2036.53 2896.5 2058.67 2887.39 2073 2871M4195 2732.48C4174.29 2735.78 4155.24 2738.78 4135.96 2747.82C4103.81 2762.9 4076.84 2794.86 4085.62 2832.04C4087.21 2838.75 4091.1 2845.2 4094.72 2851C4100.24 2859.83 4107.91 2866.8 4116.09 2873.14C4151.81 2900.82 4202.75 2906.12 4246.01 2899.23C4261.96 2896.7 4277.5 2891.4 4292 2884.31C4309.76 2875.63 4327.79 2859.91 4336.49 2842C4347.63 2819.06 4340.69 2789.61 4322.98 2772.02C4299.09 2748.29 4267.9 2736.58 4234.91 2733.11C4222.15 2731.77 4207.78 2730.44 4195 2732.48M3613 2755C3608.97 2750.3 3602.66 2747.91 3597 2745.6C3583.68 2740.16 3569.31 2736.42 3555 2734.85C3511.86 2730.13 3467.62 2734.85 3432 2761.65C3415.73 2773.89 3401.9 2790.89 3400.2 2812C3398.16 2837.16 3411.96 2857.43 3431 2872.36C3466.18 2899.93 3513.16 2903.3 3555.91 2898.94C3574.15 2897.08 3591.6 2892.69 3608 2884.37C3612.92 2881.87 3621.1 2878.42 3623.26 2872.98C3624.78 2869.14 3624 2864.05 3624 2860L3624 2834C3624 2830.05 3625.13 2823.78 3622.82 2820.32C3620.94 2817.49 3616.95 2818.01 3614 2818L3593 2818C3589.94 2818 3585.91 2817.39 3583.15 2819.03C3579.12 2821.41 3580 2827.03 3580 2831L3580 2850C3580 2853.07 3580.6 2856.99 3579.4 2859.89C3577.69 2864.01 3571.82 2864.87 3568 2865.96C3556.78 2869.17 3544.64 2870.7 3533 2870.99C3510.29 2871.54 3484.46 2868.14 3465.58 2854.24C3442.6 2837.34 3440.51 2806.76 3459.3 2786.05C3465.2 2779.55 3474.06 2775.43 3482 2772.02C3506.09 2761.66 3535.93 2761.28 3561.39 2766.1C3568.27 2767.4 3575.6 2770.38 3582 2773.17C3584.69 2774.34 3587.81 2776.8 3590.91 2776.04C3593.87 2775.33 3596.04 2772.05 3598.04 2770C3602.97 2764.93 3608.14 2760.13 3613 2755M5415 2872C5423.42 2881.93 5439.67 2886.73 5451.73 2890.71C5485.66 2901.9 5526.44 2905.41 5561 2894.79C5581.4 2888.53 5608.61 2870.06 5602.06 2845.04C5597.84 2828.9 5586.63 2820.34 5572 2813.91C5549.79 2804.14 5525.35 2803 5502 2797.54C5491.21 2795.01 5463.94 2791.56 5471.38 2774.01C5475.05 2765.36 5487.05 2764.21 5494.99 2762.73C5511.02 2759.75 5530.66 2761.92 5546.29 2766.38C5551.89 2767.99 5557.59 2769.64 5563 2771.82C5565.73 2772.92 5568.95 2775.27 5572 2775.07C5575.99 2774.81 5578.8 2770.76 5581.25 2768.09C5585.37 2763.59 5590.19 2759.74 5595 2756C5592.78 2750.58 5588.21 2748.72 5583 2746.6C5572.64 2742.41 5561.32 2738.88 5550.29 2737.14C5518.9 2732.19 5485.9 2729.75 5455.91 2742.63C5444.22 2747.65 5431.48 2755.49 5426.56 2768C5419.62 2785.65 5428.21 2803.87 5444 2813.26C5467.08 2826.99 5495.18 2828.97 5521 2833.8C5532.65 2835.98 5556.99 2837.97 5556.58 2854C5556.25 2866.44 5538.85 2869.92 5529 2870.83C5508.88 2872.71 5488.75 2870.02 5469.59 2863.61C5463.53 2861.58 5457.76 2858.56 5452 2855.83C5449.29 2854.55 5446.08 2852.21 5443 2852.15C5439.23 2852.07 5435.75 2855.43 5433 2857.6C5427.04 2862.3 5421.53 2868.2 5415 2872M2318 2895C2313.86 2891.78 2310.81 2887.71 2306.99 2884.17C2296.41 2874.36 2285.44 2864.9 2275 2854.96C2271.79 2851.91 2268.12 2849.08 2265.12 2845.83C2264.1 2844.74 2262.57 2843.13 2263.21 2841.47C2263.99 2839.44 2268.24 2839.04 2270 2838.36C2275.14 2836.38 2280.71 2834.09 2285.29 2830.99C2299.95 2821.07 2308.34 2807.39 2308.34 2790C2308.34 2781.99 2308.08 2775.03 2303.55 2768C2289.35 2745.99 2265.53 2740.5 2241 2738.22C2235.01 2737.66 2229.03 2736.17 2223 2736.05C2218.89 2735.98 2215.06 2737.61 2211 2737.66C2195.09 2737.85 2178.97 2737 2163 2737L2127 2737C2122.85 2737 2116.58 2736.05 2114.03 2740.23C2112.24 2743.15 2113 2747.73 2113 2751L2113 2774L2113 2863L2113 2887C2113.01 2892.08 2113.35 2896.76 2119 2898.49C2123.54 2899.88 2129.3 2899 2134 2899C2139.9 2899 2150.65 2901.05 2155.85 2897.97C2160.1 2895.46 2159 2889.16 2159 2885L2159 2860C2159 2856.84 2158.18 2852.09 2160.03 2849.32C2162.32 2845.88 2168.48 2847 2172 2847L2196 2847C2199.78 2847 2204.3 2846.3 2207.99 2847.18C2211.04 2847.91 2212.91 2850.4 2215.17 2852.37C2219.64 2856.27 2223.96 2859.68 2228.17 2863.9C2235.05 2870.77 2243.06 2876.67 2250.07 2883.34C2254.82 2887.86 2258.26 2893.78 2264 2897.4C2270.67 2901.6 2284.32 2899 2292 2899C2299.95 2899 2312.47 2901.64 2318 2895M2808 2896C2785.26 2859.44 2760.89 2823.76 2736.84 2788C2731.07 2779.43 2724.71 2771.12 2719.17 2762.42C2714.61 2755.28 2710.31 2744.83 2703.67 2739.41C2700.75 2737.02 2696.5 2737.98 2693 2738L2670 2738C2666.68 2738 2662.31 2737.29 2659.18 2738.6C2656.14 2739.88 2654.51 2743.36 2652.58 2745.83C2646.57 2753.5 2642.54 2762.14 2636.97 2769.98C2616.02 2799.45 2597.73 2830.85 2576.45 2860C2569.9 2868.98 2564.36 2878.8 2558.11 2888C2556.5 2890.37 2552.04 2895.33 2555.49 2897.97C2558.99 2900.65 2567.8 2899 2572 2899L2589 2899C2591.93 2898.99 2595.27 2899.31 2597.73 2897.4C2600.3 2895.39 2601.62 2891.69 2603.35 2889C2606.46 2884.17 2610.39 2879.92 2613.33 2875C2615.85 2870.78 2618.04 2865.46 2623 2863.6C2626.3 2862.37 2630.54 2863 2634 2863L2655 2863L2726 2863C2729.91 2863 2735.34 2862.07 2738.9 2864.03C2742.46 2865.99 2744.63 2870.67 2746.71 2874C2749.13 2877.87 2752.32 2881.14 2754.73 2885C2757.16 2888.89 2758.61 2893.61 2762.19 2896.68C2765.52 2899.54 2769.9 2899 2774 2899C2784 2899 2799.63 2902.02 2808 2896M4989 2787C5017.39 2811.47 5046.06 2835.6 5074.92 2859.51C5083.71 2866.79 5091.76 2874.96 5100.91 2881.83C5107.16 2886.51 5112.08 2893.31 5119 2897.08C5127.41 2901.65 5141.69 2899 5151 2899C5154.75 2899 5159.43 2899.7 5162.94 2898.14C5166.87 2896.4 5166.97 2892.77 5167 2889C5167.05 2882 5167 2875 5167 2868L5167 2773L5167 2748C5166.99 2744.66 5167.49 2740.39 5163.85 2738.74C5159.5 2736.77 5152.68 2738 5148 2738L5131 2738C5128.71 2738.01 5125.53 2737.65 5123.6 2739.18C5119.96 2742.06 5122 2753.77 5122 2758L5122 2814C5122 2823 5122.06 2832 5122 2841C5121.98 2843.21 5122.44 2848.77 5118.85 2848.41C5115.17 2848.03 5111.47 2843.2 5108.91 2840.87C5101.57 2834.17 5093.72 2827.6 5086 2821.36C5064.02 2803.61 5042.51 2785.05 5021.09 2766.61C5013.85 2760.38 5006.42 2754.45 4999.13 2748.29C4995.51 2745.23 4991.95 2741.24 4987.71 2739.01C4984.36 2737.25 4979.67 2738 4976 2738C4967.36 2738 4955.28 2735.83 4947.06 2738.65C4942.69 2740.15 4943.01 2744.09 4943 2748L4943 2773L4943 2867C4943 2874.33 4942.95 2881.67 4943 2889C4943.02 2892.3 4942.91 2895.82 4946.15 2897.68C4949.28 2899.49 4953.54 2899 4957 2899L4978 2899C4981.26 2898.98 4985.79 2899.33 4987.4 2895.77C4988.65 2892.99 4988 2888.98 4988 2886L4988 2866L4988 2817C4988 2807.07 4987.18 2796.79 4989 2787M3133 2739L3133 2846L3133 2878L3133.32 2893.85L3141 2897L3163 2897L3171.97 2895.4L3173 2887L3173 2867L3173 2813L3175 2785L3295 2886.58L3308 2896.4L3335 2897L3350.4 2895.82L3352 2886L3352 2857L3352 2739L3324 2739L3312.6 2740.03L3311 2748L3311 2769L3311 2824L3310.04 2840L3309 2854L3213 2772.25L3189 2751.83L3173 2739.56L3160 2739L3133 2739M3810 2781L3828.52 2802.58L3870.76 2858L3884.25 2876L3892.04 2883.4L3901 2884L3912.83 2883.4L3930.63 2862.09L3973.99 2805L3995 2780L3995 2867L3995 2888L3996.6 2895.82L4008 2897L4037 2897L4037 2739L3993 2739C3984.23 2739 3976.35 2737.71 3969 2743L3951.89 2768L3903 2836L3878.65 2802.09L3854.71 2770L3839.45 2749L3832.68 2740.6L3818 2739L3783 2739L3768.03 2740.6L3767 2751L3767 2777L3767 2861L3767 2884L3767.6 2894.68L3777 2897L3801 2897L3809.4 2894.57L3810 2877L3810 2836L3810 2781M4388 2739L4388 2854L4388 2884C4388 2887.12 4386.95 2892.78 4389.03 2895.4C4390.89 2897.75 4395.38 2897 4398 2897C4406 2897 4414 2897.04 4422 2897C4425.08 2896.98 4429.56 2897.44 4430.68 2893.77C4431.76 2890.27 4431 2885.63 4431 2882L4431 2859L4431 2781L4449.5 2803L4492.21 2859L4504.35 2875L4513 2883.4L4521 2884L4532.96 2882.97L4551.13 2861L4589.85 2810L4615 2779C4616.93 2789.42 4616 2800.43 4616 2811L4616 2866L4616 2888C4616 2890.41 4615.45 2894.11 4617.6 2895.82C4619.95 2897.68 4624.23 2897 4627 2897L4648 2897C4650.89 2897 4655.81 2897.7 4657.4 2894.57C4658.95 2891.51 4658 2886.34 4658 2883L4658 2858L4658 2775L4658 2752C4658 2748.86 4658.82 2744.22 4657.4 2741.32C4655.34 2737.13 4644.86 2739 4641 2739L4607 2739C4600.53 2739 4595.04 2738.15 4590.43 2743.44C4580.16 2755.22 4571.93 2769.42 4562.63 2782C4549.39 2799.9 4535.55 2817.64 4523 2836L4505.29 2810.96L4471.2 2764L4459.34 2748L4451.83 2739.6L4432 2739L4388 2739M2365 2740L2365 2896L2534 2896L2534 2873L2440 2873L2417 2873L2406.15 2870.68L2403 2860L2403.06 2836L2408.02 2828.6L2419 2828L2441 2828L2517 2828L2517 2807L2440 2807L2418 2807C2414.62 2807 2410.26 2807.69 2407.06 2806.4C2403.44 2804.93 2403.07 2801.44 2403 2798C2402.86 2790.34 2402.98 2782.66 2403 2775C2403.01 2771.63 2402.73 2767.91 2405.32 2765.32C2408.12 2762.51 2412.37 2763 2416 2763L2438 2763L2530 2763L2530 2740L2365 2740M2800 2740C2800 2744.94 2797.86 2756.4 2801.03 2760.4C2803.66 2763.72 2813.21 2762 2817 2762L2856 2762C2860.68 2762 2867.19 2760.85 2870.4 2765.15C2872.63 2768.13 2872 2772.5 2872 2776L2872 2800L2872 2895L2909 2895L2909 2797L2909 2774L2912.15 2763.6L2932 2762L2981 2762L2981 2740L2800 2740M3028 2740L3028 2896L3066 2896L3066 2740L3028 2740M4724 2740L4724 2854L4724 2883L4725.03 2894.4L4736 2896L4767 2896L4893 2896L4893 2873L4799 2873L4776 2873L4765.15 2870.68L4762 2860L4762.06 2836L4767.02 2828.6L4778 2828L4800 2828L4876 2828L4876 2807L4799 2807L4777 2807C4773.62 2807 4769.26 2807.69 4766.06 2806.4C4762.44 2804.93 4762.07 2801.44 4762 2798C4761.86 2790.34 4761.98 2782.66 4762 2775C4762.01 2771.63 4761.73 2767.91 4764.32 2765.32C4766.91 2762.73 4770.63 2763.01 4774 2763L4797 2763L4889 2763L4889 2740L4724 2740M5209 2740C5209 2744.94 5206.86 2756.4 5210.03 2760.4C5212.66 2763.72 5222.21 2762 5226 2762L5265 2762C5269.68 2762 5276.19 2760.85 5279.4 2765.15C5281.63 2768.13 5281 2772.5 5281 2776L5281 2801L5281 2896L5319 2896L5319 2797L5319 2774L5322.15 2763.6L5342 2762L5391 2762L5391 2740L5209 2740z" />
  <path style="fill:#fef201; stroke:none;" d="M5209 2761L5210 2762L5209 2761z" />
  <path style="fill:#313131; stroke:none;" d="M4199 2763.79C4169.17 2768.6 4132.02 2781.73 4132.3 2818C4132.33 2823.21 4134.01 2828.34 4136.17 2833.04C4138.33 2837.76 4140.14 2842.71 4143.72 2846.61C4147.38 2850.59 4153.42 2853.36 4158 2856.19C4181.42 2870.67 4210.42 2872.36 4237 2867.96C4262.02 2863.82 4290.9 2847.8 4293.21 2820C4293.64 2814.89 4292.45 2809.91 4291.23 2805C4289.83 2799.38 4287.2 2793.55 4283.52 2789.02C4278.21 2782.48 4270.4 2778.35 4263 2774.74C4247.22 2767.05 4232.4 2763.92 4215 2764C4209.82 2764.02 4204.07 2762.97 4199 2763.79M2161.6 2767.03C2158.93 2769.15 2160 2775.02 2160 2778L2160 2805C2160 2807.8 2159.08 2812.98 2161.6 2814.97C2163.49 2816.47 2166.76 2816 2169 2816L2185 2816C2200.37 2816 2215.7 2816.32 2231 2815.09C2239.41 2814.41 2249.26 2813.11 2255.87 2807.32C2265.82 2798.6 2265.33 2778.36 2252.99 2772.14C2243.78 2767.5 2233.95 2767.38 2224 2766.9C2210.66 2766.25 2197.4 2766 2184 2766L2168 2766C2166.01 2766.01 2163.28 2765.7 2161.6 2767.03z" />
  <path style="fill:#fef201; stroke:none;" d="M2403 2766L2403 2805L2404 2777L2403 2766z" />
  <path style="fill:#313131; stroke:none;" d="M2680 2775L2654.55 2813L2642 2832L2662 2833L2698 2833L2715.86 2831.4L2709.14 2817L2689.59 2788L2680 2775z" />
  <path style="fill:#fef201; stroke:none;" d="M2405 2806L2406 2807L2405 2806M4764 2806L4765 2807L4764 2806M2403 2831L2403 2869L2404 2842L2403 2831z" />
</svg>